<svg xmlns="http://www.w3.org/2000/svg" xmlns:xlink="http://www.w3.org/1999/xlink" width="500" zoomAndPan="magnify" viewBox="0 0 375 374.999991" height="500" preserveAspectRatio="xMidYMid meet" version="1.0"><defs><g/><clipPath id="1169996713"><path d="M 49 114.542969 L 132.75 114.542969 L 132.75 219 L 49 219 Z M 49 114.542969 " clip-rule="nonzero"/></clipPath><clipPath id="56b297fbb4"><path d="M 23.25 137 L 108 137 L 108 241.292969 L 23.25 241.292969 Z M 23.25 137 " clip-rule="nonzero"/></clipPath></defs><rect x="-37.5" width="450" fill="#ffffff" y="-37.499999" height="449.999989" fill-opacity="1"/><rect x="-37.5" width="450" fill="#ffffff" y="-37.499999" height="449.999989" fill-opacity="1"/><g clip-path="url(#1169996713)"><path fill="#0097b2" d="M 65.339844 138.941406 L 78.113281 131.566406 L 132.96875 163.238281 L 132.96875 146.222656 L 78.113281 114.550781 L 49.140625 131.277344 L 49.140625 149.019531 L 118.234375 188.902344 L 118.234375 218.082031 L 132.96875 209.574219 L 132.96875 177.992188 Z M 65.339844 138.941406 " fill-opacity="1" fill-rule="nonzero"/></g><g clip-path="url(#56b297fbb4)"><path fill="#000000" d="M 90.882812 216.859375 L 78.113281 224.234375 L 23.253906 192.558594 L 23.253906 209.574219 L 78.113281 241.25 L 107.082031 224.519531 L 107.082031 206.78125 L 37.988281 166.898438 L 37.988281 137.714844 L 23.253906 146.222656 L 23.253906 177.808594 Z M 90.882812 216.859375 " fill-opacity="1" fill-rule="nonzero"/></g><g fill="#ffffff" fill-opacity="0.4"><g transform="translate(155.64638, 181.66147)"><g><path d="M 19.039062 0.472656 L 19.890625 0.472656 C 28.039062 0.425781 32.679688 -4.878906 33.011719 -10.136719 C 33.390625 -15.628906 29.222656 -21.785156 19.183594 -23.066406 L 19.085938 -23.066406 C 15.441406 -23.492188 11.652344 -25.292969 11.839844 -27.945312 C 11.984375 -29.839844 14.824219 -31.589844 19.988281 -31.355469 L 20.128906 -31.355469 C 22.972656 -31.355469 26.382812 -29.980469 28.132812 -28.703125 L 32.207031 -34.386719 C 29.507812 -36.328125 24.769531 -38.316406 20.222656 -38.316406 C 10.183594 -38.835938 5.304688 -33.722656 4.878906 -28.511719 C 4.640625 -25.480469 5.921875 -22.496094 8.382812 -20.222656 C 10.796875 -17.996094 14.257812 -16.578125 18.328125 -16.152344 C 23.871094 -15.394531 26.191406 -12.835938 26.050781 -10.609375 C 25.90625 -8.574219 23.730469 -6.535156 19.796875 -6.535156 L 19.5625 -6.535156 C 19.511719 -6.535156 14.351562 -6.25 11.175781 -8.855469 C 10.371094 -9.472656 9.710938 -10.230469 9.09375 -11.128906 L 3.316406 -7.199219 C 4.261719 -5.777344 5.445312 -4.5 6.773438 -3.410156 C 11.082031 0.09375 16.765625 0.472656 19.039062 0.472656 Z M 19.039062 0.472656 "/></g></g></g><g fill="#ffffff" fill-opacity="0.4"><g transform="translate(191.968024, 181.66147)"><g><path d="M 3.316406 -37.890625 L 10.417969 -37.890625 L 10.417969 -0.140625 L 3.316406 -0.140625 Z M 3.316406 -37.890625 "/></g></g></g><g fill="#ffffff" fill-opacity="0.4"><g transform="translate(205.701104, 181.66147)"><g><path d="M 15.722656 -37.890625 L 3.316406 -37.890625 L 3.316406 0 L 15.722656 0 C 25.71875 0 32.820312 -8.476562 32.820312 -18.945312 C 32.820312 -29.414062 25.433594 -37.890625 15.722656 -37.890625 Z M 15.722656 -30.832031 C 21.359375 -30.832031 25.765625 -25.625 25.765625 -18.945312 C 25.765625 -15.535156 24.722656 -12.457031 22.734375 -10.230469 C 21.457031 -8.761719 19.230469 -7.058594 15.722656 -7.058594 L 10.371094 -7.058594 L 10.371094 -30.832031 Z M 15.722656 -30.832031 "/></g></g></g><g fill="#ffffff" fill-opacity="0.4"><g transform="translate(241.833324, 181.66147)"><g><path d="M 15.722656 -37.890625 L 3.316406 -37.890625 L 3.316406 0 L 15.722656 0 C 25.71875 0 32.820312 -8.476562 32.820312 -18.945312 C 32.820312 -29.414062 25.433594 -37.890625 15.722656 -37.890625 Z M 15.722656 -30.832031 C 21.359375 -30.832031 25.765625 -25.625 25.765625 -18.945312 C 25.765625 -15.535156 24.722656 -12.457031 22.734375 -10.230469 C 21.457031 -8.761719 19.230469 -7.058594 15.722656 -7.058594 L 10.371094 -7.058594 L 10.371094 -30.832031 Z M 15.722656 -30.832031 "/></g></g></g><g fill="#ffffff" fill-opacity="0.4"><g transform="translate(277.965544, 181.66147)"><g><path d="M 25.8125 -37.605469 L 25.8125 -20.320312 L 10.417969 -20.320312 L 10.417969 -37.605469 L 3.316406 -37.605469 L 3.316406 0.332031 L 10.417969 0.332031 L 10.417969 -13.261719 L 25.8125 -13.261719 L 25.8125 0.332031 L 32.871094 0.332031 L 32.871094 -37.605469 Z M 25.8125 -37.605469 "/></g></g></g><g fill="#ffffff" fill-opacity="0.4"><g transform="translate(314.145121, 181.66147)"><g><path d="M 25.671875 0 L 33.058594 0 L 21.929688 -37.796875 L 21.929688 -37.890625 L 14.492188 -37.890625 L 3.316406 0 L 10.75 0 L 13.546875 -9.425781 L 22.875 -9.425781 Z M 15.628906 -16.480469 L 18.234375 -25.292969 L 20.792969 -16.480469 Z M 15.628906 -16.480469 "/></g></g></g><g fill="#0097b2" fill-opacity="1"><g transform="translate(158.410292, 180.600499)"><g><path d="M 19.039062 0.472656 L 19.890625 0.472656 C 28.039062 0.425781 32.679688 -4.878906 33.011719 -10.136719 C 33.390625 -15.628906 29.222656 -21.785156 19.183594 -23.066406 L 19.085938 -23.066406 C 15.441406 -23.492188 11.652344 -25.292969 11.839844 -27.945312 C 11.984375 -29.839844 14.824219 -31.589844 19.988281 -31.355469 L 20.128906 -31.355469 C 22.972656 -31.355469 26.382812 -29.980469 28.132812 -28.703125 L 32.207031 -34.386719 C 29.507812 -36.328125 24.769531 -38.316406 20.222656 -38.316406 C 10.183594 -38.835938 5.304688 -33.722656 4.878906 -28.511719 C 4.640625 -25.480469 5.921875 -22.496094 8.382812 -20.222656 C 10.796875 -17.996094 14.257812 -16.578125 18.328125 -16.152344 C 23.871094 -15.394531 26.191406 -12.835938 26.050781 -10.609375 C 25.90625 -8.574219 23.730469 -6.535156 19.796875 -6.535156 L 19.5625 -6.535156 C 19.511719 -6.535156 14.351562 -6.25 11.175781 -8.855469 C 10.371094 -9.472656 9.710938 -10.230469 9.09375 -11.128906 L 3.316406 -7.199219 C 4.261719 -5.777344 5.445312 -4.5 6.773438 -3.410156 C 11.082031 0.09375 16.765625 0.472656 19.039062 0.472656 Z M 19.039062 0.472656 "/></g></g></g><g fill="#0097b2" fill-opacity="1"><g transform="translate(194.731935, 180.600499)"><g><path d="M 3.316406 -37.890625 L 10.417969 -37.890625 L 10.417969 -0.140625 L 3.316406 -0.140625 Z M 3.316406 -37.890625 "/></g></g></g><g fill="#0097b2" fill-opacity="1"><g transform="translate(208.465016, 180.600499)"><g><path d="M 15.722656 -37.890625 L 3.316406 -37.890625 L 3.316406 0 L 15.722656 0 C 25.71875 0 32.820312 -8.476562 32.820312 -18.945312 C 32.820312 -29.414062 25.433594 -37.890625 15.722656 -37.890625 Z M 15.722656 -30.832031 C 21.359375 -30.832031 25.765625 -25.625 25.765625 -18.945312 C 25.765625 -15.535156 24.722656 -12.457031 22.734375 -10.230469 C 21.457031 -8.761719 19.230469 -7.058594 15.722656 -7.058594 L 10.371094 -7.058594 L 10.371094 -30.832031 Z M 15.722656 -30.832031 "/></g></g></g><g fill="#0097b2" fill-opacity="1"><g transform="translate(244.597236, 180.600499)"><g><path d="M 15.722656 -37.890625 L 3.316406 -37.890625 L 3.316406 0 L 15.722656 0 C 25.71875 0 32.820312 -8.476562 32.820312 -18.945312 C 32.820312 -29.414062 25.433594 -37.890625 15.722656 -37.890625 Z M 15.722656 -30.832031 C 21.359375 -30.832031 25.765625 -25.625 25.765625 -18.945312 C 25.765625 -15.535156 24.722656 -12.457031 22.734375 -10.230469 C 21.457031 -8.761719 19.230469 -7.058594 15.722656 -7.058594 L 10.371094 -7.058594 L 10.371094 -30.832031 Z M 15.722656 -30.832031 "/></g></g></g><g fill="#0097b2" fill-opacity="1"><g transform="translate(280.729456, 180.600499)"><g><path d="M 25.8125 -37.605469 L 25.8125 -20.320312 L 10.417969 -20.320312 L 10.417969 -37.605469 L 3.316406 -37.605469 L 3.316406 0.332031 L 10.417969 0.332031 L 10.417969 -13.261719 L 25.8125 -13.261719 L 25.8125 0.332031 L 32.871094 0.332031 L 32.871094 -37.605469 Z M 25.8125 -37.605469 "/></g></g></g><g fill="#0097b2" fill-opacity="1"><g transform="translate(316.909032, 180.600499)"><g><path d="M 25.671875 0 L 33.058594 0 L 21.929688 -37.796875 L 21.929688 -37.890625 L 14.492188 -37.890625 L 3.316406 0 L 10.75 0 L 13.546875 -9.425781 L 22.875 -9.425781 Z M 15.628906 -16.480469 L 18.234375 -25.292969 L 20.792969 -16.480469 Z M 15.628906 -16.480469 "/></g></g></g><g fill="#000000" fill-opacity="1"><g transform="translate(131.468887, 228.428963)"><g><path d="M 15.019531 0.375 L 15.691406 0.375 C 22.121094 0.335938 25.78125 -3.847656 26.042969 -7.996094 C 26.34375 -12.332031 23.054688 -17.1875 15.132812 -18.195312 L 15.058594 -18.195312 C 12.179688 -18.53125 9.191406 -19.953125 9.339844 -22.046875 C 9.453125 -23.539062 11.695312 -24.921875 15.769531 -24.734375 L 15.878906 -24.734375 C 18.121094 -24.734375 20.8125 -23.652344 22.195312 -22.644531 L 25.40625 -27.128906 C 23.277344 -28.660156 19.542969 -30.226562 15.953125 -30.226562 C 8.035156 -30.640625 4.183594 -26.605469 3.847656 -22.492188 C 3.660156 -20.101562 4.671875 -17.75 6.613281 -15.953125 C 8.519531 -14.199219 11.246094 -13.078125 14.460938 -12.742188 C 18.832031 -12.144531 20.664062 -10.125 20.550781 -8.371094 C 20.4375 -6.761719 18.71875 -5.15625 15.617188 -5.15625 L 15.433594 -5.15625 C 15.394531 -5.15625 11.320312 -4.933594 8.816406 -6.988281 C 8.183594 -7.472656 7.660156 -8.070312 7.175781 -8.78125 L 2.617188 -5.679688 C 3.363281 -4.558594 4.296875 -3.550781 5.34375 -2.691406 C 8.742188 0.0742188 13.226562 0.375 15.019531 0.375 Z M 15.019531 0.375 "/></g></g></g><g fill="#000000" fill-opacity="1"><g transform="translate(160.123553, 228.428963)"><g><path d="M 16.589844 -30.265625 C 8.144531 -30.265625 1.308594 -23.429688 1.308594 -14.984375 C 1.308594 -6.539062 8.144531 0.300781 16.589844 0.300781 C 25.035156 0.300781 31.871094 -6.539062 31.871094 -14.984375 C 31.871094 -23.429688 25.035156 -30.265625 16.589844 -30.265625 Z M 16.589844 -24.546875 C 21.894531 -24.546875 25.632812 -20.25 25.632812 -14.984375 C 25.632812 -9.714844 21.894531 -5.417969 16.589844 -5.417969 C 11.320312 -5.417969 7.585938 -9.714844 7.585938 -14.984375 C 7.585938 -20.25 11.320312 -24.546875 16.589844 -24.546875 Z M 16.589844 -24.546875 "/></g></g></g><g fill="#000000" fill-opacity="1"><g transform="translate(193.298714, 228.428963)"><g><path d="M 8.183594 -5.566406 L 8.183594 -29.890625 L 2.617188 -29.890625 L 2.617188 0 L 19.914062 0 L 19.914062 -5.566406 Z M 8.183594 -5.566406 "/></g></g></g><g fill="#000000" fill-opacity="1"><g transform="translate(215.826441, 228.428963)"><g><path d="M 19.804688 -29.890625 L 19.804688 -10.351562 C 19.804688 -7.324219 17.375 -4.894531 14.386719 -4.894531 L 13.636719 -4.894531 C 10.648438 -4.894531 8.21875 -7.324219 8.21875 -10.351562 L 8.21875 -29.890625 L 2.617188 -29.890625 L 2.617188 -10.351562 C 2.617188 -4.296875 7.585938 0.671875 13.636719 0.671875 L 14.386719 0.671875 C 20.4375 0.671875 25.371094 -4.296875 25.371094 -10.351562 L 25.371094 -29.890625 Z M 19.804688 -29.890625 "/></g></g></g><g fill="#000000" fill-opacity="1"><g transform="translate(243.80864, 228.428963)"><g><path d="M 25.070312 -29.890625 L 2.617188 -29.890625 L 2.617188 -24.324219 L 11.058594 -24.324219 L 11.058594 0 L 16.628906 0 L 16.628906 -24.324219 L 25.070312 -24.324219 Z M 25.070312 -29.890625 "/></g></g></g><g fill="#000000" fill-opacity="1"><g transform="translate(271.491965, 228.428963)"><g><path d="M 2.617188 -29.890625 L 8.21875 -29.890625 L 8.21875 -0.113281 L 2.617188 -0.113281 Z M 2.617188 -29.890625 "/></g></g></g><g fill="#000000" fill-opacity="1"><g transform="translate(282.3262, 228.428963)"><g><path d="M 16.589844 -30.265625 C 8.144531 -30.265625 1.308594 -23.429688 1.308594 -14.984375 C 1.308594 -6.539062 8.144531 0.300781 16.589844 0.300781 C 25.035156 0.300781 31.871094 -6.539062 31.871094 -14.984375 C 31.871094 -23.429688 25.035156 -30.265625 16.589844 -30.265625 Z M 16.589844 -24.546875 C 21.894531 -24.546875 25.632812 -20.25 25.632812 -14.984375 C 25.632812 -9.714844 21.894531 -5.417969 16.589844 -5.417969 C 11.320312 -5.417969 7.585938 -9.714844 7.585938 -14.984375 C 7.585938 -20.25 11.320312 -24.546875 16.589844 -24.546875 Z M 16.589844 -24.546875 "/></g></g></g><g fill="#000000" fill-opacity="1"><g transform="translate(315.501361, 228.428963)"><g><path d="M 20.363281 -29.890625 L 20.363281 -9.714844 L 8.742188 -29.890625 L 2.617188 -29.890625 L 2.617188 0 L 8.21875 0 L 8.21875 -18.71875 L 18.980469 0 L 25.96875 0 L 25.96875 -29.890625 Z M 20.363281 -29.890625 "/></g></g></g><g fill="#000000" fill-opacity="1"><g transform="translate(344.081308, 228.428963)"><g><path d="M 15.019531 0.375 L 15.691406 0.375 C 22.121094 0.335938 25.78125 -3.847656 26.042969 -7.996094 C 26.34375 -12.332031 23.054688 -17.1875 15.132812 -18.195312 L 15.058594 -18.195312 C 12.179688 -18.53125 9.191406 -19.953125 9.339844 -22.046875 C 9.453125 -23.539062 11.695312 -24.921875 15.769531 -24.734375 L 15.878906 -24.734375 C 18.121094 -24.734375 20.8125 -23.652344 22.195312 -22.644531 L 25.40625 -27.128906 C 23.277344 -28.660156 19.542969 -30.226562 15.953125 -30.226562 C 8.035156 -30.640625 4.183594 -26.605469 3.847656 -22.492188 C 3.660156 -20.101562 4.671875 -17.75 6.613281 -15.953125 C 8.519531 -14.199219 11.246094 -13.078125 14.460938 -12.742188 C 18.832031 -12.144531 20.664062 -10.125 20.550781 -8.371094 C 20.4375 -6.761719 18.71875 -5.15625 15.617188 -5.15625 L 15.433594 -5.15625 C 15.394531 -5.15625 11.320312 -4.933594 8.816406 -6.988281 C 8.183594 -7.472656 7.660156 -8.070312 7.175781 -8.78125 L 2.617188 -5.679688 C 3.363281 -4.558594 4.296875 -3.550781 5.34375 -2.691406 C 8.742188 0.0742188 13.226562 0.375 15.019531 0.375 Z M 15.019531 0.375 "/></g></g></g></svg>